<mxfile host="app.diagrams.net" modified="2022-06-08T10:59:26.921Z" agent="5.0 (Windows NT 10.0; Win64; x64) AppleWebKit/537.36 (KHTML, like Gecko) Chrome/102.0.5005.63 Safari/537.36 Edg/102.0.1245.33" etag="GW64FOBb_FCBy6RPk3qQ" version="17.4.0" type="github">
  <diagram id="bu0EIs0O4jUmpTZgNSbI" name="第 1 页">
    <mxGraphModel dx="6283" dy="2409" grid="1" gridSize="10" guides="1" tooltips="1" connect="1" arrows="1" fold="1" page="1" pageScale="1" pageWidth="1169" pageHeight="827" math="0" shadow="0">
      <root>
        <mxCell id="0" />
        <mxCell id="1" parent="0" />
        <mxCell id="PeHvXQYI0FSNWm7aJ0UE-1" value="&lt;span style=&quot;font-size: 18px&quot;&gt;用户表&lt;/span&gt;" style="rounded=0;whiteSpace=wrap;html=1;fillColor=#1ba1e2;strokeColor=#006EAF;strokeWidth=2;fontColor=#ffffff;" vertex="1" parent="1">
          <mxGeometry x="-98.5" y="220" width="120" height="60" as="geometry" />
        </mxCell>
        <mxCell id="PeHvXQYI0FSNWm7aJ0UE-2" value="&lt;font style=&quot;font-size: 12px&quot;&gt;用户名&lt;/font&gt;" style="ellipse;whiteSpace=wrap;html=1;fontSize=18;strokeColor=default;strokeWidth=2;" vertex="1" parent="1">
          <mxGeometry x="-208.5" y="167" width="60" height="46" as="geometry" />
        </mxCell>
        <mxCell id="PeHvXQYI0FSNWm7aJ0UE-3" value="&lt;font style=&quot;font-size: 12px&quot;&gt;密码&lt;/font&gt;" style="ellipse;whiteSpace=wrap;html=1;fontSize=18;strokeColor=default;strokeWidth=2;" vertex="1" parent="1">
          <mxGeometry x="-128.5" y="160" width="60" height="46" as="geometry" />
        </mxCell>
        <mxCell id="PeHvXQYI0FSNWm7aJ0UE-4" value="&lt;font style=&quot;font-size: 12px&quot;&gt;邮箱&lt;/font&gt;&lt;span style=&quot;color: rgba(0 , 0 , 0 , 0) ; font-family: monospace ; font-size: 0px&quot;&gt;%3CmxGraphModel%3E%3Croot%3E%3CmxCell%20id%3D%220%22%2F%3E%3CmxCell%20id%3D%221%22%20parent%3D%220%22%2F%3E%3CmxCell%20id%3D%222%22%20value%3D%22%26lt%3Bfont%20style%3D%26quot%3Bfont-size%3A%2012px%26quot%3B%26gt%3B%E7%94%A8%E6%88%B7%E5%90%8D%26lt%3B%2Ffont%26gt%3B%22%20style%3D%22ellipse%3BwhiteSpace%3Dwrap%3Bhtml%3D1%3BfontSize%3D18%3BstrokeColor%3Ddefault%3BstrokeWidth%3D2%3B%22%20vertex%3D%221%22%20parent%3D%221%22%3E%3CmxGeometry%20x%3D%22140%22%20y%3D%22360%22%20width%3D%2260%22%20height%3D%2246%22%20as%3D%22geometry%22%2F%3E%3C%2FmxCell%3E%3C%2Froot%3E%3C%2FmxGraphModel%3E&lt;/span&gt;" style="ellipse;whiteSpace=wrap;html=1;fontSize=18;strokeColor=default;strokeWidth=2;" vertex="1" parent="1">
          <mxGeometry x="-48.5" y="160" width="60" height="46" as="geometry" />
        </mxCell>
        <mxCell id="PeHvXQYI0FSNWm7aJ0UE-5" value="&lt;span style=&quot;font-size: 12px&quot;&gt;头像&lt;/span&gt;&lt;span style=&quot;color: rgba(0 , 0 , 0 , 0) ; font-family: monospace ; font-size: 0px&quot;&gt;%3CmxGraphModel%3E%3Croot%3E%3CmxCell%20id%3D%220%22%2F%3E%3CmxCell%20id%3D%221%22%20parent%3D%220%22%2F%3E%3CmxCell%20id%3D%222%22%20value%3D%22%26lt%3Bfont%20style%3D%26quot%3Bfont-size%3A%2012px%26quot%3B%26gt%3B%E9%82%AE%E7%AE%B1%26lt%3B%2Ffont%26gt%3B%26lt%3Bspan%20style%3D%26quot%3Bcolor%3A%20rgba(0%20%2C%200%20%2C%200%20%2C%200)%20%3B%20font-family%3A%20monospace%20%3B%20font-size%3A%200px%26quot%3B%26gt%3B%253CmxGraphModel%253E%253Croot%253E%253CmxCell%2520id%253D%25220%2522%252F%253E%253CmxCell%2520id%253D%25221%2522%2520parent%253D%25220%2522%252F%253E%253CmxCell%2520id%253D%25222%2522%2520value%253D%2522%2526lt%253Bfont%2520style%253D%2526quot%253Bfont-size%253A%252012px%2526quot%253B%2526gt%253B%25E7%2594%25A8%25E6%2588%25B7%25E5%2590%258D%2526lt%253B%252Ffont%2526gt%253B%2522%2520style%253D%2522ellipse%253BwhiteSpace%253Dwrap%253Bhtml%253D1%253BfontSize%253D18%253BstrokeColor%253Ddefault%253BstrokeWidth%253D2%253B%2522%2520vertex%253D%25221%2522%2520parent%253D%25221%2522%253E%253CmxGeometry%2520x%253D%2522140%2522%2520y%253D%2522360%2522%2520width%253D%252260%2522%2520height%253D%252246%2522%2520as%253D%2522geometry%2522%252F%253E%253C%252FmxCell%253E%253C%252Froot%253E%253C%252FmxGraphModel%253E%26lt%3B%2Fspan%26gt%3B%22%20style%3D%22ellipse%3BwhiteSpace%3Dwrap%3Bhtml%3D1%3BfontSize%3D18%3BstrokeColor%3Ddefault%3BstrokeWidth%3D2%3B%22%20vertex%3D%221%22%20parent%3D%221%22%3E%3CmxGeometry%20x%3D%22310%22%20y%3D%22360%22%20width%3D%2260%22%20height%3D%2246%22%20as%3D%22geometry%22%2F%3E%3C%2FmxCell%3E%3C%2Froot%3E%3C%2FmxGraphModel%3E&lt;/span&gt;" style="ellipse;whiteSpace=wrap;html=1;fontSize=18;strokeColor=default;strokeWidth=2;" vertex="1" parent="1">
          <mxGeometry x="41.5" y="160" width="60" height="46" as="geometry" />
        </mxCell>
        <mxCell id="PeHvXQYI0FSNWm7aJ0UE-6" value="&lt;span style=&quot;font-size: 12px&quot;&gt;注册时间&lt;/span&gt;" style="ellipse;whiteSpace=wrap;html=1;fontSize=18;strokeColor=default;strokeWidth=2;" vertex="1" parent="1">
          <mxGeometry x="-208.5" y="310" width="60" height="46" as="geometry" />
        </mxCell>
        <mxCell id="PeHvXQYI0FSNWm7aJ0UE-7" value="&lt;span style=&quot;font-size: 12px&quot;&gt;上次登录时间&lt;/span&gt;" style="ellipse;whiteSpace=wrap;html=1;fontSize=18;strokeColor=default;strokeWidth=2;" vertex="1" parent="1">
          <mxGeometry x="-118.5" y="382" width="80" height="46" as="geometry" />
        </mxCell>
        <mxCell id="PeHvXQYI0FSNWm7aJ0UE-8" value="&lt;span style=&quot;font-size: 12px&quot;&gt;粉丝数&lt;/span&gt;&lt;span style=&quot;color: rgba(0 , 0 , 0 , 0) ; font-family: monospace ; font-size: 0px&quot;&gt;%3CmxGraphModel%3E%3Croot%3E%3CmxCell%20id%3D%220%22%2F%3E%3CmxCell%20id%3D%221%22%20parent%3D%220%22%2F%3E%3CmxCell%20id%3D%222%22%20value%3D%22%26lt%3Bfont%20style%3D%26quot%3Bfont-size%3A%2012px%26quot%3B%26gt%3B%E9%82%AE%E7%AE%B1%26lt%3B%2Ffont%26gt%3B%26lt%3Bspan%20style%3D%26quot%3Bcolor%3A%20rgba(0%20%2C%200%20%2C%200%20%2C%200)%20%3B%20font-family%3A%20monospace%20%3B%20font-size%3A%200px%26quot%3B%26gt%3B%253CmxGraphModel%253E%253Croot%253E%253CmxCell%2520id%253D%25220%2522%252F%253E%253CmxCell%2520id%253D%25221%2522%2520parent%253D%25220%2522%252F%253E%253CmxCell%2520id%253D%25222%2522%2520value%253D%2522%2526lt%253Bfont%2520style%253D%2526quot%253Bfont-size%253A%252012px%2526quot%253B%2526gt%253B%25E7%2594%25A8%25E6%2588%25B7%25E5%2590%258D%2526lt%253B%252Ffont%2526gt%253B%2522%2520style%253D%2522ellipse%253BwhiteSpace%253Dwrap%253Bhtml%253D1%253BfontSize%253D18%253BstrokeColor%253Ddefault%253BstrokeWidth%253D2%253B%2522%2520vertex%253D%25221%2522%2520parent%253D%25221%2522%253E%253CmxGeometry%2520x%253D%2522140%2522%2520y%253D%2522360%2522%2520width%253D%252260%2522%2520height%253D%252246%2522%2520as%253D%2522geometry%2522%252F%253E%253C%252FmxCell%253E%253C%252Froot%253E%253C%252FmxGraphModel%253E%26lt%3B%2Fspan%26gt%3B%22%20style%3D%22ellipse%3BwhiteSpace%3Dwrap%3Bhtml%3D1%3BfontSize%3D18%3BstrokeColor%3Ddefault%3BstrokeWidth%3D2%3B%22%20vertex%3D%221%22%20parent%3D%221%22%3E%3CmxGeometry%20x%3D%22310%22%20y%3D%22360%22%20width%3D%2260%22%20height%3D%2246%22%20as%3D%22geometry%22%2F%3E%3C%2FmxCell%3E%3C%2Froot%3E%3C%2FmxGraphModel%3E&lt;/span&gt;" style="ellipse;whiteSpace=wrap;html=1;fontSize=18;strokeColor=default;strokeWidth=2;" vertex="1" parent="1">
          <mxGeometry x="280" y="381" width="50" height="46" as="geometry" />
        </mxCell>
        <mxCell id="PeHvXQYI0FSNWm7aJ0UE-9" value="&lt;span style=&quot;font-size: 12px&quot;&gt;关注数&lt;/span&gt;" style="ellipse;whiteSpace=wrap;html=1;fontSize=18;strokeColor=default;strokeWidth=2;" vertex="1" parent="1">
          <mxGeometry x="220" y="381" width="50" height="46" as="geometry" />
        </mxCell>
        <mxCell id="PeHvXQYI0FSNWm7aJ0UE-10" value="&lt;span style=&quot;font-size: 12px&quot;&gt;个性签名&lt;/span&gt;" style="ellipse;whiteSpace=wrap;html=1;fontSize=18;strokeColor=default;strokeWidth=2;" vertex="1" parent="1">
          <mxGeometry x="136.5" y="310" width="60" height="46" as="geometry" />
        </mxCell>
        <mxCell id="PeHvXQYI0FSNWm7aJ0UE-11" value="&lt;span style=&quot;font-size: 12px&quot;&gt;昵称&lt;/span&gt;" style="ellipse;whiteSpace=wrap;html=1;fontSize=18;strokeColor=default;strokeWidth=2;" vertex="1" parent="1">
          <mxGeometry x="123" y="164" width="60" height="46" as="geometry" />
        </mxCell>
        <mxCell id="PeHvXQYI0FSNWm7aJ0UE-12" value="&lt;span style=&quot;font-size: 12px&quot;&gt;用户解封时间&lt;/span&gt;" style="ellipse;whiteSpace=wrap;html=1;fontSize=18;strokeColor=default;strokeWidth=2;" vertex="1" parent="1">
          <mxGeometry x="-208.5" y="380" width="80" height="46" as="geometry" />
        </mxCell>
        <mxCell id="PeHvXQYI0FSNWm7aJ0UE-13" value="注册时间：未激活显示激活码（code+激活码），激活后为注册时间" style="text;html=1;strokeColor=none;fillColor=none;align=center;verticalAlign=middle;whiteSpace=wrap;rounded=0;fontSize=12;" vertex="1" parent="1">
          <mxGeometry x="-150" y="660" width="360" height="30" as="geometry" />
        </mxCell>
        <mxCell id="PeHvXQYI0FSNWm7aJ0UE-14" value="用户解封时间：未封时为0，封时为解封时间" style="text;html=1;strokeColor=none;fillColor=none;align=center;verticalAlign=middle;whiteSpace=wrap;rounded=0;fontSize=12;" vertex="1" parent="1">
          <mxGeometry x="-190" y="700" width="320" height="30" as="geometry" />
        </mxCell>
        <mxCell id="PeHvXQYI0FSNWm7aJ0UE-15" value="&lt;font style=&quot;font-size: 12px&quot;&gt;地址&lt;/font&gt;" style="ellipse;whiteSpace=wrap;html=1;fontSize=18;strokeColor=default;strokeWidth=2;" vertex="1" parent="1">
          <mxGeometry x="-210" y="234" width="60" height="46" as="geometry" />
        </mxCell>
        <mxCell id="PeHvXQYI0FSNWm7aJ0UE-16" value="&lt;span style=&quot;font-size: 12px&quot;&gt;头衔&lt;/span&gt;" style="ellipse;whiteSpace=wrap;html=1;fontSize=18;strokeColor=default;strokeWidth=2;" vertex="1" parent="1">
          <mxGeometry x="141.5" y="234" width="60" height="46" as="geometry" />
        </mxCell>
        <mxCell id="PeHvXQYI0FSNWm7aJ0UE-17" value="头衔以英文逗号分隔，如 ” 小编,圈主 “" style="text;html=1;strokeColor=none;fillColor=none;align=center;verticalAlign=middle;whiteSpace=wrap;rounded=0;fontSize=12;" vertex="1" parent="1">
          <mxGeometry x="-210" y="740" width="320" height="30" as="geometry" />
        </mxCell>
        <mxCell id="PeHvXQYI0FSNWm7aJ0UE-18" value="&lt;span style=&quot;font-size: 18px&quot;&gt;帖子表&lt;/span&gt;" style="rounded=0;whiteSpace=wrap;html=1;fillColor=#1ba1e2;strokeColor=#006EAF;strokeWidth=2;fontColor=#ffffff;" vertex="1" parent="1">
          <mxGeometry x="560" y="150" width="120" height="60" as="geometry" />
        </mxCell>
        <mxCell id="PeHvXQYI0FSNWm7aJ0UE-19" value="帖子类型：普通，活动（是否显示发布者，报名链接，是否过期），通知" style="text;html=1;strokeColor=none;fillColor=none;align=center;verticalAlign=middle;whiteSpace=wrap;rounded=0;fontSize=12;" vertex="1" parent="1">
          <mxGeometry x="340" y="660" width="440" height="30" as="geometry" />
        </mxCell>
        <mxCell id="PeHvXQYI0FSNWm7aJ0UE-20" value="&lt;span style=&quot;font-size: 12px&quot;&gt;帖子所属标签&lt;/span&gt;" style="ellipse;whiteSpace=wrap;html=1;fontSize=18;strokeColor=default;strokeWidth=2;" vertex="1" parent="1">
          <mxGeometry x="530" y="250" width="90" height="46" as="geometry" />
        </mxCell>
        <mxCell id="PeHvXQYI0FSNWm7aJ0UE-21" value="&lt;span style=&quot;font-size: 12px&quot;&gt;帖子类型&lt;/span&gt;" style="ellipse;whiteSpace=wrap;html=1;fontSize=18;strokeColor=default;strokeWidth=2;" vertex="1" parent="1">
          <mxGeometry x="450" y="250" width="60" height="46" as="geometry" />
        </mxCell>
        <mxCell id="PeHvXQYI0FSNWm7aJ0UE-22" value="&lt;span style=&quot;font-size: 12px&quot;&gt;帖子所属圈子&lt;/span&gt;" style="ellipse;whiteSpace=wrap;html=1;fontSize=18;strokeColor=default;strokeWidth=2;" vertex="1" parent="1">
          <mxGeometry x="630" y="250" width="90" height="46" as="geometry" />
        </mxCell>
        <mxCell id="PeHvXQYI0FSNWm7aJ0UE-23" value="帖子所属标签：以英文逗号分隔，最好只有一个标签" style="text;html=1;strokeColor=none;fillColor=none;align=center;verticalAlign=middle;whiteSpace=wrap;rounded=0;fontSize=12;" vertex="1" parent="1">
          <mxGeometry x="350" y="690" width="320" height="30" as="geometry" />
        </mxCell>
        <mxCell id="PeHvXQYI0FSNWm7aJ0UE-24" value="&lt;span style=&quot;font-size: 12px&quot;&gt;发布时间&lt;/span&gt;" style="ellipse;whiteSpace=wrap;html=1;fontSize=18;strokeColor=default;strokeWidth=2;" vertex="1" parent="1">
          <mxGeometry x="740" y="250" width="60" height="46" as="geometry" />
        </mxCell>
        <mxCell id="PeHvXQYI0FSNWm7aJ0UE-25" value="&lt;span style=&quot;font-size: 12px&quot;&gt;帖子所属用户&lt;/span&gt;" style="ellipse;whiteSpace=wrap;html=1;fontSize=18;strokeColor=default;strokeWidth=2;" vertex="1" parent="1">
          <mxGeometry x="620" y="304" width="90" height="46" as="geometry" />
        </mxCell>
        <mxCell id="PeHvXQYI0FSNWm7aJ0UE-26" value="&lt;span style=&quot;font-size: 12px&quot;&gt;原始正文&lt;/span&gt;" style="ellipse;whiteSpace=wrap;html=1;fontSize=18;strokeColor=default;strokeWidth=2;" vertex="1" parent="1">
          <mxGeometry x="445" y="304" width="70" height="46" as="geometry" />
        </mxCell>
        <mxCell id="PeHvXQYI0FSNWm7aJ0UE-27" value="&lt;span style=&quot;font-size: 12px&quot;&gt;文章状态&lt;/span&gt;" style="ellipse;whiteSpace=wrap;html=1;fontSize=18;strokeColor=default;strokeWidth=2;" vertex="1" parent="1">
          <mxGeometry x="740" y="304" width="68.5" height="46" as="geometry" />
        </mxCell>
        <mxCell id="PeHvXQYI0FSNWm7aJ0UE-28" value="&lt;span style=&quot;font-size: 12px&quot;&gt;点赞数量&amp;nbsp;&lt;/span&gt;" style="ellipse;whiteSpace=wrap;html=1;fontSize=18;strokeColor=default;strokeWidth=2;" vertex="1" parent="1">
          <mxGeometry x="540" y="483" width="60" height="46" as="geometry" />
        </mxCell>
        <mxCell id="PeHvXQYI0FSNWm7aJ0UE-29" value="&lt;span style=&quot;font-size: 12px&quot;&gt;评论数量&lt;/span&gt;" style="ellipse;whiteSpace=wrap;html=1;fontSize=18;strokeColor=default;strokeWidth=2;" vertex="1" parent="1">
          <mxGeometry x="620" y="483" width="60" height="46" as="geometry" />
        </mxCell>
        <mxCell id="PeHvXQYI0FSNWm7aJ0UE-30" value="&lt;span style=&quot;font-size: 12px&quot;&gt;标题&lt;/span&gt;" style="ellipse;whiteSpace=wrap;html=1;fontSize=18;strokeColor=default;strokeWidth=2;" vertex="1" parent="1">
          <mxGeometry x="540" y="304" width="60" height="46" as="geometry" />
        </mxCell>
        <mxCell id="PeHvXQYI0FSNWm7aJ0UE-31" value="&lt;span style=&quot;font-size: 12px&quot;&gt;允许评论&lt;/span&gt;" style="ellipse;whiteSpace=wrap;html=1;fontSize=18;strokeColor=default;strokeWidth=2;" vertex="1" parent="1">
          <mxGeometry x="635" y="368" width="60" height="46" as="geometry" />
        </mxCell>
        <mxCell id="PeHvXQYI0FSNWm7aJ0UE-32" value="&lt;span style=&quot;font-size: 12px&quot;&gt;是否置顶&lt;/span&gt;" style="ellipse;whiteSpace=wrap;html=1;fontSize=18;strokeColor=default;strokeWidth=2;" vertex="1" parent="1">
          <mxGeometry x="700" y="420" width="60" height="46" as="geometry" />
        </mxCell>
        <mxCell id="PeHvXQYI0FSNWm7aJ0UE-33" value="&lt;span style=&quot;font-size: 12px&quot;&gt;浏览数量&lt;/span&gt;" style="ellipse;whiteSpace=wrap;html=1;fontSize=18;strokeColor=default;strokeWidth=2;" vertex="1" parent="1">
          <mxGeometry x="545" y="424" width="60" height="46" as="geometry" />
        </mxCell>
        <mxCell id="PeHvXQYI0FSNWm7aJ0UE-34" value="&lt;span style=&quot;font-size: 12px&quot;&gt;推荐指数&lt;/span&gt;" style="ellipse;whiteSpace=wrap;html=1;fontSize=18;strokeColor=default;strokeWidth=2;" vertex="1" parent="1">
          <mxGeometry x="700" y="483" width="60" height="46" as="geometry" />
        </mxCell>
        <mxCell id="PeHvXQYI0FSNWm7aJ0UE-35" value="推荐指数：用于增加曝光的几率（分数），默认为0，最高100" style="text;html=1;strokeColor=none;fillColor=none;align=center;verticalAlign=middle;whiteSpace=wrap;rounded=0;fontSize=12;" vertex="1" parent="1">
          <mxGeometry x="330" y="600" width="400" height="30" as="geometry" />
        </mxCell>
        <mxCell id="PeHvXQYI0FSNWm7aJ0UE-36" value="推荐的算法：5*推荐指数+1*浏览数量+3*评论数量+2*点赞数量 + （时间小于10天）50 + （时间小于20天）20 +（时间大于20天）0" style="text;html=1;strokeColor=none;fillColor=none;align=center;verticalAlign=middle;whiteSpace=wrap;rounded=0;fontSize=12;" vertex="1" parent="1">
          <mxGeometry x="290" y="760" width="740" height="30" as="geometry" />
        </mxCell>
        <mxCell id="PeHvXQYI0FSNWm7aJ0UE-37" value="&lt;span style=&quot;font-size: 12px&quot;&gt;渲染后正文&lt;/span&gt;" style="ellipse;whiteSpace=wrap;html=1;fontSize=18;strokeColor=default;strokeWidth=2;" vertex="1" parent="1">
          <mxGeometry x="890" y="500" width="70" height="46" as="geometry" />
        </mxCell>
        <mxCell id="PeHvXQYI0FSNWm7aJ0UE-38" value="&lt;span style=&quot;font-size: 18px&quot;&gt;一级评论表&lt;/span&gt;" style="rounded=0;whiteSpace=wrap;html=1;fillColor=#1ba1e2;strokeColor=#006EAF;strokeWidth=2;fontColor=#ffffff;" vertex="1" parent="1">
          <mxGeometry x="-980" y="216" width="120" height="60" as="geometry" />
        </mxCell>
        <mxCell id="PeHvXQYI0FSNWm7aJ0UE-39" value="&lt;font style=&quot;font-size: 12px&quot;&gt;帖子id&lt;/font&gt;" style="ellipse;whiteSpace=wrap;html=1;fontSize=18;strokeColor=default;strokeWidth=2;" vertex="1" parent="1">
          <mxGeometry x="-1060" y="300" width="60" height="46" as="geometry" />
        </mxCell>
        <mxCell id="PeHvXQYI0FSNWm7aJ0UE-40" value="&lt;span style=&quot;font-size: 12px&quot;&gt;用户id&lt;/span&gt;" style="ellipse;whiteSpace=wrap;html=1;fontSize=18;strokeColor=default;strokeWidth=2;" vertex="1" parent="1">
          <mxGeometry x="-980" y="300" width="60" height="46" as="geometry" />
        </mxCell>
        <mxCell id="PeHvXQYI0FSNWm7aJ0UE-41" value="&lt;span style=&quot;font-size: 12px&quot;&gt;匿名id&lt;/span&gt;" style="ellipse;whiteSpace=wrap;html=1;fontSize=18;strokeColor=default;strokeWidth=2;" vertex="1" parent="1">
          <mxGeometry x="440" y="420" width="60" height="46" as="geometry" />
        </mxCell>
        <mxCell id="PeHvXQYI0FSNWm7aJ0UE-42" value="匿名id：默认为0表示非匿名，当为用户id是表示为匿名" style="text;html=1;strokeColor=none;fillColor=none;align=center;verticalAlign=middle;whiteSpace=wrap;rounded=0;fontSize=12;" vertex="1" parent="1">
          <mxGeometry x="360" y="720" width="320" height="30" as="geometry" />
        </mxCell>
        <mxCell id="PeHvXQYI0FSNWm7aJ0UE-43" value="&lt;span style=&quot;font-size: 12px&quot;&gt;审核状态&lt;/span&gt;" style="ellipse;whiteSpace=wrap;html=1;fontSize=18;strokeColor=default;strokeWidth=2;" vertex="1" parent="1">
          <mxGeometry x="620" y="420" width="60" height="46" as="geometry" />
        </mxCell>
        <mxCell id="PeHvXQYI0FSNWm7aJ0UE-44" value="审核时间：为0表示审核中，1通过，2表示未通过" style="text;html=1;strokeColor=none;fillColor=none;align=center;verticalAlign=middle;whiteSpace=wrap;rounded=0;fontSize=12;" vertex="1" parent="1">
          <mxGeometry x="340" y="630" width="310" height="30" as="geometry" />
        </mxCell>
        <mxCell id="PeHvXQYI0FSNWm7aJ0UE-45" value="&lt;span style=&quot;font-size: 12px&quot;&gt;IP地址&lt;/span&gt;" style="ellipse;whiteSpace=wrap;html=1;fontSize=18;strokeColor=default;strokeWidth=2;" vertex="1" parent="1">
          <mxGeometry x="-830" y="437" width="60" height="46" as="geometry" />
        </mxCell>
        <mxCell id="PeHvXQYI0FSNWm7aJ0UE-46" value="&lt;span style=&quot;font-size: 12px&quot;&gt;审核状态&lt;/span&gt;" style="ellipse;whiteSpace=wrap;html=1;fontSize=18;strokeColor=default;strokeWidth=2;" vertex="1" parent="1">
          <mxGeometry x="-1070" y="372" width="60" height="46" as="geometry" />
        </mxCell>
        <mxCell id="PeHvXQYI0FSNWm7aJ0UE-47" value="审核时间：为0表示审核中，1通过，2表示未通过" style="text;html=1;strokeColor=none;fillColor=none;align=center;verticalAlign=middle;whiteSpace=wrap;rounded=0;fontSize=12;" vertex="1" parent="1">
          <mxGeometry x="-1100" y="740" width="310" height="30" as="geometry" />
        </mxCell>
        <mxCell id="PeHvXQYI0FSNWm7aJ0UE-48" value="&lt;span style=&quot;font-size: 12px&quot;&gt;qq号码&lt;/span&gt;" style="ellipse;whiteSpace=wrap;html=1;fontSize=18;strokeColor=default;strokeWidth=2;" vertex="1" parent="1">
          <mxGeometry x="-28.5" y="318" width="60" height="46" as="geometry" />
        </mxCell>
        <mxCell id="PeHvXQYI0FSNWm7aJ0UE-49" value="用户组：普通，审核员" style="text;html=1;strokeColor=none;fillColor=none;align=center;verticalAlign=middle;whiteSpace=wrap;rounded=0;fontSize=12;" vertex="1" parent="1">
          <mxGeometry x="-247.5" y="780" width="320" height="30" as="geometry" />
        </mxCell>
        <mxCell id="PeHvXQYI0FSNWm7aJ0UE-50" value="&lt;span style=&quot;font-size: 12px&quot;&gt;时间&lt;/span&gt;" style="ellipse;whiteSpace=wrap;html=1;fontSize=18;strokeColor=default;strokeWidth=2;" vertex="1" parent="1">
          <mxGeometry x="-990" y="369" width="60" height="46" as="geometry" />
        </mxCell>
        <mxCell id="PeHvXQYI0FSNWm7aJ0UE-51" value="&lt;span style=&quot;font-size: 12px&quot;&gt;内容&lt;/span&gt;" style="ellipse;whiteSpace=wrap;html=1;fontSize=18;strokeColor=default;strokeWidth=2;" vertex="1" parent="1">
          <mxGeometry x="-900" y="304" width="60" height="46" as="geometry" />
        </mxCell>
        <mxCell id="PeHvXQYI0FSNWm7aJ0UE-52" value="&lt;span style=&quot;font-size: 12px&quot;&gt;状态&lt;/span&gt;" style="ellipse;whiteSpace=wrap;html=1;fontSize=18;strokeColor=default;strokeWidth=2;" vertex="1" parent="1">
          <mxGeometry x="-820" y="304" width="60" height="46" as="geometry" />
        </mxCell>
        <mxCell id="PeHvXQYI0FSNWm7aJ0UE-53" value="&lt;span style=&quot;font-size: 12px&quot;&gt;是否顶置&lt;/span&gt;" style="ellipse;whiteSpace=wrap;html=1;fontSize=18;strokeColor=default;strokeWidth=2;" vertex="1" parent="1">
          <mxGeometry x="-900" y="370" width="60" height="44" as="geometry" />
        </mxCell>
        <mxCell id="PeHvXQYI0FSNWm7aJ0UE-54" value="&lt;span style=&quot;font-size: 18px&quot;&gt;二级评论表（回复表）&lt;/span&gt;" style="rounded=0;whiteSpace=wrap;html=1;fillColor=#1ba1e2;strokeColor=#006EAF;strokeWidth=2;fontColor=#ffffff;" vertex="1" parent="1">
          <mxGeometry x="-560" y="220" width="120" height="60" as="geometry" />
        </mxCell>
        <mxCell id="PeHvXQYI0FSNWm7aJ0UE-55" value="&lt;font style=&quot;font-size: 12px&quot;&gt;帖子id&lt;/font&gt;" style="ellipse;whiteSpace=wrap;html=1;fontSize=18;strokeColor=default;strokeWidth=2;" vertex="1" parent="1">
          <mxGeometry x="-640" y="304" width="60" height="46" as="geometry" />
        </mxCell>
        <mxCell id="PeHvXQYI0FSNWm7aJ0UE-56" value="&lt;span style=&quot;font-size: 12px&quot;&gt;用户id&lt;/span&gt;" style="ellipse;whiteSpace=wrap;html=1;fontSize=18;strokeColor=default;strokeWidth=2;" vertex="1" parent="1">
          <mxGeometry x="-560" y="304" width="60" height="46" as="geometry" />
        </mxCell>
        <mxCell id="PeHvXQYI0FSNWm7aJ0UE-57" value="&lt;span style=&quot;font-size: 12px&quot;&gt;回复的评论id&lt;/span&gt;" style="ellipse;whiteSpace=wrap;html=1;fontSize=18;strokeColor=default;strokeWidth=2;" vertex="1" parent="1">
          <mxGeometry x="-545" y="434" width="90" height="46" as="geometry" />
        </mxCell>
        <mxCell id="PeHvXQYI0FSNWm7aJ0UE-58" value="&lt;span style=&quot;font-size: 12px&quot;&gt;审核状态&lt;/span&gt;" style="ellipse;whiteSpace=wrap;html=1;fontSize=18;strokeColor=default;strokeWidth=2;" vertex="1" parent="1">
          <mxGeometry x="-390" y="375" width="60" height="46" as="geometry" />
        </mxCell>
        <mxCell id="PeHvXQYI0FSNWm7aJ0UE-59" value="&lt;span style=&quot;font-size: 12px&quot;&gt;时间&lt;/span&gt;" style="ellipse;whiteSpace=wrap;html=1;fontSize=18;strokeColor=default;strokeWidth=2;" vertex="1" parent="1">
          <mxGeometry x="-640" y="370" width="60" height="46" as="geometry" />
        </mxCell>
        <mxCell id="PeHvXQYI0FSNWm7aJ0UE-60" value="&lt;span style=&quot;font-size: 12px&quot;&gt;内容&lt;/span&gt;" style="ellipse;whiteSpace=wrap;html=1;fontSize=18;strokeColor=default;strokeWidth=2;" vertex="1" parent="1">
          <mxGeometry x="-560" y="372" width="60" height="46" as="geometry" />
        </mxCell>
        <mxCell id="PeHvXQYI0FSNWm7aJ0UE-61" value="&lt;span style=&quot;font-size: 12px&quot;&gt;评论状态&lt;/span&gt;" style="ellipse;whiteSpace=wrap;html=1;fontSize=18;strokeColor=default;strokeWidth=2;" vertex="1" parent="1">
          <mxGeometry x="-475" y="375" width="60" height="46" as="geometry" />
        </mxCell>
        <mxCell id="PeHvXQYI0FSNWm7aJ0UE-62" value="&lt;span style=&quot;font-size: 12px&quot;&gt;回复数&lt;/span&gt;" style="ellipse;whiteSpace=wrap;html=1;fontSize=18;strokeColor=default;strokeWidth=2;" vertex="1" parent="1">
          <mxGeometry x="-1060" y="428" width="60" height="46" as="geometry" />
        </mxCell>
        <mxCell id="PeHvXQYI0FSNWm7aJ0UE-63" value="&lt;span style=&quot;font-size: 12px&quot;&gt;点赞数&lt;/span&gt;" style="ellipse;whiteSpace=wrap;html=1;fontSize=18;strokeColor=default;strokeWidth=2;" vertex="1" parent="1">
          <mxGeometry x="-980" y="428" width="60" height="46" as="geometry" />
        </mxCell>
        <mxCell id="PeHvXQYI0FSNWm7aJ0UE-64" value="评论排序算法：" style="text;html=1;strokeColor=none;fillColor=none;align=center;verticalAlign=middle;whiteSpace=wrap;rounded=0;fontSize=12;" vertex="1" parent="1">
          <mxGeometry x="-1120" y="780" width="400" height="30" as="geometry" />
        </mxCell>
        <mxCell id="PeHvXQYI0FSNWm7aJ0UE-65" value="&lt;span style=&quot;font-size: 12px&quot;&gt;被回复内容&lt;/span&gt;" style="ellipse;whiteSpace=wrap;html=1;fontSize=18;strokeColor=default;strokeWidth=2;" vertex="1" parent="1">
          <mxGeometry x="-470" y="304" width="90" height="46" as="geometry" />
        </mxCell>
        <mxCell id="PeHvXQYI0FSNWm7aJ0UE-66" value="回复的评论既可以是一级评论，也可以是二级评论" style="text;html=1;strokeColor=none;fillColor=none;align=center;verticalAlign=middle;whiteSpace=wrap;rounded=0;fontSize=12;" vertex="1" parent="1">
          <mxGeometry x="-640" y="740" width="310" height="30" as="geometry" />
        </mxCell>
        <mxCell id="PeHvXQYI0FSNWm7aJ0UE-67" value="&lt;span style=&quot;font-size: 12px&quot;&gt;连续登录天数&lt;/span&gt;" style="ellipse;whiteSpace=wrap;html=1;fontSize=18;strokeColor=default;strokeWidth=2;" vertex="1" parent="1">
          <mxGeometry x="101.5" y="437" width="78.5" height="46" as="geometry" />
        </mxCell>
        <mxCell id="PeHvXQYI0FSNWm7aJ0UE-68" value="&lt;span style=&quot;font-size: 12px&quot;&gt;积分数&lt;/span&gt;" style="ellipse;whiteSpace=wrap;html=1;fontSize=18;strokeColor=default;strokeWidth=2;" vertex="1" parent="1">
          <mxGeometry x="160" y="381" width="50" height="46" as="geometry" />
        </mxCell>
        <mxCell id="PeHvXQYI0FSNWm7aJ0UE-69" value="&lt;span style=&quot;font-size: 12px&quot;&gt;邀请码&lt;/span&gt;" style="ellipse;whiteSpace=wrap;html=1;fontSize=18;strokeColor=default;strokeWidth=2;" vertex="1" parent="1">
          <mxGeometry x="-76.75" y="490" width="60" height="46" as="geometry" />
        </mxCell>
        <mxCell id="PeHvXQYI0FSNWm7aJ0UE-70" value="&lt;span style=&quot;font-size: 18px&quot;&gt;配置表&lt;/span&gt;" style="rounded=0;whiteSpace=wrap;html=1;fillColor=#1ba1e2;strokeColor=#006EAF;strokeWidth=2;fontColor=#ffffff;" vertex="1" parent="1">
          <mxGeometry x="-970" y="910" width="130" height="60" as="geometry" />
        </mxCell>
        <mxCell id="PeHvXQYI0FSNWm7aJ0UE-71" value="&lt;font style=&quot;font-size: 12px&quot;&gt;登录积分数量&lt;/font&gt;" style="ellipse;whiteSpace=wrap;html=1;fontSize=18;strokeColor=default;strokeWidth=2;" vertex="1" parent="1">
          <mxGeometry x="-957.5" y="1014" width="90" height="46" as="geometry" />
        </mxCell>
        <mxCell id="PeHvXQYI0FSNWm7aJ0UE-72" value="&lt;span style=&quot;font-size: 12px&quot;&gt;评论自动审核&lt;/span&gt;" style="ellipse;whiteSpace=wrap;html=1;fontSize=18;strokeColor=default;strokeWidth=2;" vertex="1" parent="1">
          <mxGeometry x="-957.5" y="1074" width="105" height="46" as="geometry" />
        </mxCell>
        <mxCell id="PeHvXQYI0FSNWm7aJ0UE-73" value="&lt;span style=&quot;font-size: 12px&quot;&gt;允许注册&lt;/span&gt;" style="ellipse;whiteSpace=wrap;html=1;fontSize=18;strokeColor=default;strokeWidth=2;" vertex="1" parent="1">
          <mxGeometry x="-957.5" y="1130" width="90" height="46" as="geometry" />
        </mxCell>
        <mxCell id="PeHvXQYI0FSNWm7aJ0UE-74" value="&lt;span style=&quot;font-size: 12px&quot;&gt;站长qq&lt;/span&gt;" style="ellipse;whiteSpace=wrap;html=1;fontSize=18;strokeColor=default;strokeWidth=2;" vertex="1" parent="1">
          <mxGeometry x="-1030" y="1074" width="60" height="46" as="geometry" />
        </mxCell>
        <mxCell id="PeHvXQYI0FSNWm7aJ0UE-75" value="&lt;span style=&quot;font-size: 12px&quot;&gt;站点名称&lt;/span&gt;" style="ellipse;whiteSpace=wrap;html=1;fontSize=18;strokeColor=default;strokeWidth=2;" vertex="1" parent="1">
          <mxGeometry x="-1030" y="1014" width="60" height="46" as="geometry" />
        </mxCell>
        <mxCell id="PeHvXQYI0FSNWm7aJ0UE-76" value="&lt;span style=&quot;font-size: 12px&quot;&gt;帖子自动审核&lt;/span&gt;" style="ellipse;whiteSpace=wrap;html=1;fontSize=18;strokeColor=default;strokeWidth=2;" vertex="1" parent="1">
          <mxGeometry x="-952.5" y="1190" width="90" height="46" as="geometry" />
        </mxCell>
        <mxCell id="PeHvXQYI0FSNWm7aJ0UE-77" value="登录积分数量：是一个json对象，{&quot;10&quot;:2,&quot;20&quot;:5,&quot;40&quot;:8}" style="text;html=1;strokeColor=none;fillColor=none;align=center;verticalAlign=middle;whiteSpace=wrap;rounded=0;" vertex="1" parent="1">
          <mxGeometry x="-1130" y="1370" width="390" height="30" as="geometry" />
        </mxCell>
        <mxCell id="PeHvXQYI0FSNWm7aJ0UE-78" value="&lt;span style=&quot;font-size: 12px&quot;&gt;设备&lt;/span&gt;" style="ellipse;whiteSpace=wrap;html=1;fontSize=18;strokeColor=default;strokeWidth=2;" vertex="1" parent="1">
          <mxGeometry x="-900" y="428" width="60" height="46" as="geometry" />
        </mxCell>
        <mxCell id="PeHvXQYI0FSNWm7aJ0UE-79" value="&lt;span style=&quot;font-size: 12px&quot;&gt;IP地址&lt;/span&gt;" style="ellipse;whiteSpace=wrap;html=1;fontSize=18;strokeColor=default;strokeWidth=2;" vertex="1" parent="1">
          <mxGeometry x="-440" y="433" width="60" height="46" as="geometry" />
        </mxCell>
        <mxCell id="PeHvXQYI0FSNWm7aJ0UE-80" value="&lt;span style=&quot;font-size: 12px&quot;&gt;设备&lt;/span&gt;" style="ellipse;whiteSpace=wrap;html=1;fontSize=18;strokeColor=default;strokeWidth=2;" vertex="1" parent="1">
          <mxGeometry x="-370" y="433" width="60" height="46" as="geometry" />
        </mxCell>
        <mxCell id="PeHvXQYI0FSNWm7aJ0UE-81" value="name" style="rounded=1;whiteSpace=wrap;html=1;" vertex="1" parent="1">
          <mxGeometry x="-1140" y="1030" width="70" height="30" as="geometry" />
        </mxCell>
        <mxCell id="PeHvXQYI0FSNWm7aJ0UE-82" value="value" style="rounded=1;whiteSpace=wrap;html=1;" vertex="1" parent="1">
          <mxGeometry x="-790" y="1014" width="70" height="30" as="geometry" />
        </mxCell>
        <mxCell id="PeHvXQYI0FSNWm7aJ0UE-83" value="&lt;span style=&quot;font-size: 12px&quot;&gt;站点地址&lt;/span&gt;&lt;span style=&quot;color: rgba(0 , 0 , 0 , 0) ; font-family: monospace ; font-size: 0px&quot;&gt;%3CmxGraphModel%3E%3Croot%3E%3CmxCell%20id%3D%220%22%2F%3E%3CmxCell%20id%3D%221%22%20parent%3D%220%22%2F%3E%3CmxCell%20id%3D%222%22%20value%3D%22%26lt%3Bspan%20style%3D%26quot%3Bfont-size%3A%2012px%26quot%3B%26gt%3B%E7%AB%99%E7%82%B9%E5%90%8D%E7%A7%B0%26lt%3B%2Fspan%26gt%3B%22%20style%3D%22ellipse%3BwhiteSpace%3Dwrap%3Bhtml%3D1%3BfontSize%3D18%3BstrokeColor%3Ddefault%3BstrokeWidth%3D2%3B%22%20vertex%3D%221%22%20parent%3D%221%22%3E%3CmxGeometry%20x%3D%22-1040%22%20y%3D%221050%22%20width%3D%2260%22%20height%3D%2246%22%20as%3D%22geometry%22%2F%3E%3C%2FmxCell%3E%3C%2Froot%3E%3C%2FmxGraphModel%3E&lt;/span&gt;" style="ellipse;whiteSpace=wrap;html=1;fontSize=18;strokeColor=default;strokeWidth=2;" vertex="1" parent="1">
          <mxGeometry x="-1030" y="1130" width="60" height="46" as="geometry" />
        </mxCell>
        <mxCell id="PeHvXQYI0FSNWm7aJ0UE-84" value="&lt;span style=&quot;font-size: 12px&quot;&gt;站点描述&lt;/span&gt;" style="ellipse;whiteSpace=wrap;html=1;fontSize=18;strokeColor=default;strokeWidth=2;" vertex="1" parent="1">
          <mxGeometry x="-1030" y="1190" width="60" height="46" as="geometry" />
        </mxCell>
        <mxCell id="PeHvXQYI0FSNWm7aJ0UE-85" value="&lt;span style=&quot;font-size: 12px&quot;&gt;邀请人数&lt;/span&gt;" style="ellipse;whiteSpace=wrap;html=1;fontSize=18;strokeColor=default;strokeWidth=2;" vertex="1" parent="1">
          <mxGeometry x="41.5" y="437" width="50" height="46" as="geometry" />
        </mxCell>
        <mxCell id="PeHvXQYI0FSNWm7aJ0UE-86" value="&lt;span style=&quot;font-size: 12px&quot;&gt;连续登录&lt;br&gt;天数激活&lt;/span&gt;" style="ellipse;whiteSpace=wrap;html=1;fontSize=18;strokeColor=default;strokeWidth=2;" vertex="1" parent="1">
          <mxGeometry x="-952.5" y="1250" width="80" height="46" as="geometry" />
        </mxCell>
        <mxCell id="PeHvXQYI0FSNWm7aJ0UE-87" value="&lt;span style=&quot;font-size: 12px&quot;&gt;邀请几人激活&lt;/span&gt;" style="ellipse;whiteSpace=wrap;html=1;fontSize=18;strokeColor=default;strokeWidth=2;" vertex="1" parent="1">
          <mxGeometry x="-952.5" y="1304" width="80" height="46" as="geometry" />
        </mxCell>
        <mxCell id="PeHvXQYI0FSNWm7aJ0UE-88" value="&lt;span style=&quot;font-size: 18px&quot;&gt;圈子表&lt;/span&gt;" style="rounded=0;whiteSpace=wrap;html=1;fillColor=#1ba1e2;strokeColor=#006EAF;strokeWidth=2;fontColor=#ffffff;" vertex="1" parent="1">
          <mxGeometry x="-530" y="934" width="120" height="60" as="geometry" />
        </mxCell>
        <mxCell id="PeHvXQYI0FSNWm7aJ0UE-89" value="&lt;font style=&quot;font-size: 12px&quot;&gt;圈主id&lt;/font&gt;" style="ellipse;whiteSpace=wrap;html=1;fontSize=18;strokeColor=default;strokeWidth=2;" vertex="1" parent="1">
          <mxGeometry x="-610" y="1018" width="60" height="46" as="geometry" />
        </mxCell>
        <mxCell id="PeHvXQYI0FSNWm7aJ0UE-90" value="&lt;span style=&quot;font-size: 12px&quot;&gt;管理员id&lt;/span&gt;" style="ellipse;whiteSpace=wrap;html=1;fontSize=18;strokeColor=default;strokeWidth=2;" vertex="1" parent="1">
          <mxGeometry x="-530" y="1018" width="60" height="46" as="geometry" />
        </mxCell>
        <mxCell id="PeHvXQYI0FSNWm7aJ0UE-91" value="&lt;span style=&quot;font-size: 12px&quot;&gt;圈子帖子数&lt;/span&gt;" style="ellipse;whiteSpace=wrap;html=1;fontSize=18;strokeColor=default;strokeWidth=2;" vertex="1" parent="1">
          <mxGeometry x="-610" y="1078" width="70" height="46" as="geometry" />
        </mxCell>
        <mxCell id="PeHvXQYI0FSNWm7aJ0UE-92" value="&lt;span style=&quot;font-size: 12px&quot;&gt;圈子关注数&lt;/span&gt;" style="ellipse;whiteSpace=wrap;html=1;fontSize=18;strokeColor=default;strokeWidth=2;" vertex="1" parent="1">
          <mxGeometry x="-530" y="1078" width="70" height="46" as="geometry" />
        </mxCell>
        <mxCell id="PeHvXQYI0FSNWm7aJ0UE-93" value="&lt;span style=&quot;font-size: 12px&quot;&gt;圈子创建时间&lt;/span&gt;" style="ellipse;whiteSpace=wrap;html=1;fontSize=18;strokeColor=default;strokeWidth=2;" vertex="1" parent="1">
          <mxGeometry x="-450" y="1078" width="80" height="46" as="geometry" />
        </mxCell>
        <mxCell id="PeHvXQYI0FSNWm7aJ0UE-94" value="&lt;span style=&quot;font-size: 12px&quot;&gt;圈子名称&lt;/span&gt;" style="ellipse;whiteSpace=wrap;html=1;fontSize=18;strokeColor=default;strokeWidth=2;" vertex="1" parent="1">
          <mxGeometry x="-460" y="1018" width="60" height="46" as="geometry" />
        </mxCell>
        <mxCell id="PeHvXQYI0FSNWm7aJ0UE-95" value="&lt;span style=&quot;font-size: 12px&quot;&gt;圈子描述&lt;/span&gt;" style="ellipse;whiteSpace=wrap;html=1;fontSize=18;strokeColor=default;strokeWidth=2;" vertex="1" parent="1">
          <mxGeometry x="-390" y="1016" width="60" height="46" as="geometry" />
        </mxCell>
        <mxCell id="PeHvXQYI0FSNWm7aJ0UE-96" value="&lt;span style=&quot;font-size: 12px&quot;&gt;圈子头像&lt;/span&gt;" style="ellipse;whiteSpace=wrap;html=1;fontSize=18;strokeColor=default;strokeWidth=2;" vertex="1" parent="1">
          <mxGeometry x="-320" y="1016" width="60" height="46" as="geometry" />
        </mxCell>
        <mxCell id="PeHvXQYI0FSNWm7aJ0UE-97" value="&lt;span style=&quot;font-size: 12px&quot;&gt;是否精华&lt;/span&gt;" style="ellipse;whiteSpace=wrap;html=1;fontSize=18;strokeColor=default;strokeWidth=2;" vertex="1" parent="1">
          <mxGeometry x="770" y="420" width="60" height="46" as="geometry" />
        </mxCell>
        <mxCell id="PeHvXQYI0FSNWm7aJ0UE-98" value="&lt;span style=&quot;font-size: 18px&quot;&gt;消息表&lt;/span&gt;" style="rounded=0;whiteSpace=wrap;html=1;fillColor=#1ba1e2;strokeColor=#006EAF;strokeWidth=2;fontColor=#ffffff;" vertex="1" parent="1">
          <mxGeometry x="-88.5" y="934" width="120" height="60" as="geometry" />
        </mxCell>
        <mxCell id="PeHvXQYI0FSNWm7aJ0UE-99" value="&lt;font style=&quot;font-size: 12px&quot;&gt;发送id&lt;/font&gt;" style="ellipse;whiteSpace=wrap;html=1;fontSize=18;strokeColor=default;strokeWidth=2;" vertex="1" parent="1">
          <mxGeometry x="-168.5" y="1018" width="60" height="46" as="geometry" />
        </mxCell>
        <mxCell id="PeHvXQYI0FSNWm7aJ0UE-100" value="&lt;span style=&quot;font-size: 12px&quot;&gt;接收id&lt;/span&gt;" style="ellipse;whiteSpace=wrap;html=1;fontSize=18;strokeColor=default;strokeWidth=2;" vertex="1" parent="1">
          <mxGeometry x="-88.5" y="1016" width="60" height="46" as="geometry" />
        </mxCell>
        <mxCell id="PeHvXQYI0FSNWm7aJ0UE-101" value="&lt;span style=&quot;font-size: 12px&quot;&gt;消息时间&lt;/span&gt;" style="ellipse;whiteSpace=wrap;html=1;fontSize=18;strokeColor=default;strokeWidth=2;" vertex="1" parent="1">
          <mxGeometry x="-168.5" y="1078" width="68.5" height="46" as="geometry" />
        </mxCell>
        <mxCell id="PeHvXQYI0FSNWm7aJ0UE-102" value="&lt;span style=&quot;font-size: 12px&quot;&gt;资源id&lt;/span&gt;" style="ellipse;whiteSpace=wrap;html=1;fontSize=18;strokeColor=default;strokeWidth=2;" vertex="1" parent="1">
          <mxGeometry x="-18.5" y="1018" width="60" height="46" as="geometry" />
        </mxCell>
        <mxCell id="PeHvXQYI0FSNWm7aJ0UE-103" value="&lt;span style=&quot;font-size: 12px&quot;&gt;消息类型&lt;/span&gt;" style="ellipse;whiteSpace=wrap;html=1;fontSize=18;strokeColor=default;strokeWidth=2;" vertex="1" parent="1">
          <mxGeometry x="51.5" y="1016" width="60" height="46" as="geometry" />
        </mxCell>
        <mxCell id="PeHvXQYI0FSNWm7aJ0UE-104" value="&lt;span style=&quot;font-size: 12px&quot;&gt;是否已读&lt;/span&gt;" style="ellipse;whiteSpace=wrap;html=1;fontSize=18;strokeColor=default;strokeWidth=2;" vertex="1" parent="1">
          <mxGeometry x="-88.5" y="1078" width="60" height="46" as="geometry" />
        </mxCell>
        <mxCell id="PeHvXQYI0FSNWm7aJ0UE-105" value="消息类型：关注，私信，系统，回复，@我，点赞" style="text;html=1;strokeColor=none;fillColor=none;align=center;verticalAlign=middle;whiteSpace=wrap;rounded=0;" vertex="1" parent="1">
          <mxGeometry x="-208.5" y="1176" width="323.5" height="30" as="geometry" />
        </mxCell>
        <mxCell id="PeHvXQYI0FSNWm7aJ0UE-106" value="&lt;span style=&quot;font-size: 12px&quot;&gt;是否认证&lt;/span&gt;" style="ellipse;whiteSpace=wrap;html=1;fontSize=18;strokeColor=default;strokeWidth=2;" vertex="1" parent="1">
          <mxGeometry x="-208.5" y="434" width="60" height="46" as="geometry" />
        </mxCell>
        <mxCell id="PeHvXQYI0FSNWm7aJ0UE-107" value="&lt;span style=&quot;font-size: 12px&quot;&gt;认证描述&lt;/span&gt;" style="ellipse;whiteSpace=wrap;html=1;fontSize=18;strokeColor=default;strokeWidth=2;" vertex="1" parent="1">
          <mxGeometry x="-140" y="434" width="60" height="46" as="geometry" />
        </mxCell>
        <mxCell id="PeHvXQYI0FSNWm7aJ0UE-108" value="&lt;span style=&quot;font-size: 12px&quot;&gt;消息内容&lt;/span&gt;" style="ellipse;whiteSpace=wrap;html=1;fontSize=18;strokeColor=default;strokeWidth=2;" vertex="1" parent="1">
          <mxGeometry x="-20" y="1078" width="60" height="46" as="geometry" />
        </mxCell>
        <mxCell id="PeHvXQYI0FSNWm7aJ0UE-109" value="&lt;span style=&quot;font-size: 18px&quot;&gt;积分日志表&lt;/span&gt;" style="rounded=0;whiteSpace=wrap;html=1;fillColor=#1ba1e2;strokeColor=#006EAF;strokeWidth=2;fontColor=#ffffff;" vertex="1" parent="1">
          <mxGeometry x="350" y="970" width="120" height="60" as="geometry" />
        </mxCell>
        <mxCell id="PeHvXQYI0FSNWm7aJ0UE-110" value="&lt;span style=&quot;font-size: 18px&quot;&gt;系统日志表&lt;/span&gt;" style="rounded=0;whiteSpace=wrap;html=1;fillColor=#1ba1e2;strokeColor=#006EAF;strokeWidth=2;fontColor=#ffffff;" vertex="1" parent="1">
          <mxGeometry x="350" y="1078" width="120" height="60" as="geometry" />
        </mxCell>
        <mxCell id="PeHvXQYI0FSNWm7aJ0UE-111" value="&lt;span style=&quot;font-size: 12px&quot;&gt;是否在线&lt;/span&gt;" style="ellipse;whiteSpace=wrap;html=1;fontSize=18;strokeColor=default;strokeWidth=2;" vertex="1" parent="1">
          <mxGeometry x="-67" y="434" width="60" height="46" as="geometry" />
        </mxCell>
        <mxCell id="PeHvXQYI0FSNWm7aJ0UE-112" value="&lt;span style=&quot;font-size: 18px&quot;&gt;关注表&lt;/span&gt;" style="rounded=0;whiteSpace=wrap;html=1;fillColor=#1ba1e2;strokeColor=#006EAF;strokeWidth=2;fontColor=#ffffff;" vertex="1" parent="1">
          <mxGeometry x="-1030" y="1460" width="120" height="60" as="geometry" />
        </mxCell>
        <mxCell id="PeHvXQYI0FSNWm7aJ0UE-113" value="&lt;font style=&quot;font-size: 12px&quot;&gt;关注类型&lt;/font&gt;" style="ellipse;whiteSpace=wrap;html=1;fontSize=18;strokeColor=default;strokeWidth=2;" vertex="1" parent="1">
          <mxGeometry x="-1110" y="1544" width="60" height="46" as="geometry" />
        </mxCell>
        <mxCell id="PeHvXQYI0FSNWm7aJ0UE-114" value="&lt;span style=&quot;font-size: 12px&quot;&gt;资源id&lt;/span&gt;" style="ellipse;whiteSpace=wrap;html=1;fontSize=18;strokeColor=default;strokeWidth=2;" vertex="1" parent="1">
          <mxGeometry x="-1040" y="1544" width="60" height="46" as="geometry" />
        </mxCell>
        <mxCell id="PeHvXQYI0FSNWm7aJ0UE-115" value="&lt;span style=&quot;font-size: 12px&quot;&gt;关注时间&lt;/span&gt;" style="ellipse;whiteSpace=wrap;html=1;fontSize=18;strokeColor=default;strokeWidth=2;" vertex="1" parent="1">
          <mxGeometry x="-970" y="1544" width="60" height="46" as="geometry" />
        </mxCell>
        <mxCell id="PeHvXQYI0FSNWm7aJ0UE-116" value="&lt;span style=&quot;font-size: 18px&quot;&gt;收藏表&lt;/span&gt;" style="rounded=0;whiteSpace=wrap;html=1;fillColor=#1ba1e2;strokeColor=#006EAF;strokeWidth=2;fontColor=#ffffff;" vertex="1" parent="1">
          <mxGeometry x="-737.5" y="1460" width="120" height="60" as="geometry" />
        </mxCell>
        <mxCell id="PeHvXQYI0FSNWm7aJ0UE-117" value="&lt;span style=&quot;font-size: 12px&quot;&gt;用户id&lt;/span&gt;" style="ellipse;whiteSpace=wrap;html=1;fontSize=18;strokeColor=default;strokeWidth=2;" vertex="1" parent="1">
          <mxGeometry x="-760" y="1536" width="60" height="46" as="geometry" />
        </mxCell>
        <mxCell id="PeHvXQYI0FSNWm7aJ0UE-118" value="&lt;span style=&quot;font-size: 12px&quot;&gt;收藏&lt;/span&gt;" style="ellipse;whiteSpace=wrap;html=1;fontSize=18;strokeColor=default;strokeWidth=2;" vertex="1" parent="1">
          <mxGeometry x="-677.5" y="1536" width="60" height="46" as="geometry" />
        </mxCell>
        <mxCell id="PeHvXQYI0FSNWm7aJ0UE-119" value="&lt;span style=&quot;font-size: 12px&quot;&gt;用户id&lt;/span&gt;" style="ellipse;whiteSpace=wrap;html=1;fontSize=18;strokeColor=default;strokeWidth=2;" vertex="1" parent="1">
          <mxGeometry x="-900" y="1544" width="60" height="46" as="geometry" />
        </mxCell>
        <mxCell id="PeHvXQYI0FSNWm7aJ0UE-120" value="&lt;span style=&quot;font-size: 18px&quot;&gt;拉黑表&lt;/span&gt;" style="rounded=0;whiteSpace=wrap;html=1;fillColor=#1ba1e2;strokeColor=#006EAF;strokeWidth=2;fontColor=#ffffff;" vertex="1" parent="1">
          <mxGeometry x="-517.5" y="1460" width="120" height="60" as="geometry" />
        </mxCell>
        <mxCell id="PeHvXQYI0FSNWm7aJ0UE-121" value="&lt;font style=&quot;font-size: 12px&quot;&gt;拉黑的用户id&lt;/font&gt;" style="ellipse;whiteSpace=wrap;html=1;fontSize=18;strokeColor=default;strokeWidth=2;" vertex="1" parent="1">
          <mxGeometry x="-457.5" y="1544" width="80" height="46" as="geometry" />
        </mxCell>
        <mxCell id="PeHvXQYI0FSNWm7aJ0UE-122" value="&lt;span style=&quot;font-size: 12px&quot;&gt;用户id&lt;/span&gt;" style="ellipse;whiteSpace=wrap;html=1;fontSize=18;strokeColor=default;strokeWidth=2;" vertex="1" parent="1">
          <mxGeometry x="-527.5" y="1544" width="60" height="46" as="geometry" />
        </mxCell>
        <mxCell id="PeHvXQYI0FSNWm7aJ0UE-123" value="&lt;span style=&quot;font-size: 18px&quot;&gt;举报表&lt;/span&gt;" style="rounded=0;whiteSpace=wrap;html=1;fillColor=#1ba1e2;strokeColor=#006EAF;strokeWidth=2;fontColor=#ffffff;" vertex="1" parent="1">
          <mxGeometry x="-286" y="1460" width="120" height="60" as="geometry" />
        </mxCell>
        <mxCell id="PeHvXQYI0FSNWm7aJ0UE-124" value="&lt;span style=&quot;font-size: 12px&quot;&gt;举报类型&lt;/span&gt;" style="ellipse;whiteSpace=wrap;html=1;fontSize=18;strokeColor=default;strokeWidth=2;" vertex="1" parent="1">
          <mxGeometry x="-326" y="1544" width="60" height="46" as="geometry" />
        </mxCell>
        <mxCell id="PeHvXQYI0FSNWm7aJ0UE-125" value="&lt;span style=&quot;font-size: 12px&quot;&gt;举报资源id&lt;/span&gt;" style="ellipse;whiteSpace=wrap;html=1;fontSize=18;strokeColor=default;strokeWidth=2;" vertex="1" parent="1">
          <mxGeometry x="-256" y="1544" width="68.5" height="46" as="geometry" />
        </mxCell>
        <mxCell id="PeHvXQYI0FSNWm7aJ0UE-126" value="&lt;span style=&quot;font-size: 12px&quot;&gt;举报时间&lt;/span&gt;" style="ellipse;whiteSpace=wrap;html=1;fontSize=18;strokeColor=default;strokeWidth=2;" vertex="1" parent="1">
          <mxGeometry x="-177.5" y="1544" width="60" height="46" as="geometry" />
        </mxCell>
        <mxCell id="PeHvXQYI0FSNWm7aJ0UE-127" value="举报类型：评论，回复，私信，帖子，圈子" style="text;html=1;strokeColor=none;fillColor=none;align=center;verticalAlign=middle;whiteSpace=wrap;rounded=0;" vertex="1" parent="1">
          <mxGeometry x="-354.5" y="1610" width="266" height="30" as="geometry" />
        </mxCell>
        <mxCell id="PeHvXQYI0FSNWm7aJ0UE-128" value="&lt;span style=&quot;font-size: 12px&quot;&gt;举报内容&lt;/span&gt;" style="ellipse;whiteSpace=wrap;html=1;fontSize=18;strokeColor=default;strokeWidth=2;" vertex="1" parent="1">
          <mxGeometry x="-112.75" y="1544" width="62.75" height="46" as="geometry" />
        </mxCell>
        <mxCell id="PeHvXQYI0FSNWm7aJ0UE-129" value="&lt;span style=&quot;font-size: 12px&quot;&gt;收藏数&lt;/span&gt;" style="ellipse;whiteSpace=wrap;html=1;fontSize=18;strokeColor=default;strokeWidth=2;" vertex="1" parent="1">
          <mxGeometry x="41.5" y="381" width="48.5" height="46" as="geometry" />
        </mxCell>
        <mxCell id="PeHvXQYI0FSNWm7aJ0UE-130" value="&lt;span style=&quot;font-size: 12px&quot;&gt;帖子数&lt;/span&gt;" style="ellipse;whiteSpace=wrap;html=1;fontSize=18;strokeColor=default;strokeWidth=2;" vertex="1" parent="1">
          <mxGeometry x="101.5" y="381" width="48.5" height="46" as="geometry" />
        </mxCell>
        <mxCell id="PeHvXQYI0FSNWm7aJ0UE-131" value="&lt;span style=&quot;font-size: 18px&quot;&gt;图片表&lt;/span&gt;" style="rounded=0;whiteSpace=wrap;html=1;fillColor=#1ba1e2;strokeColor=#006EAF;strokeWidth=2;fontColor=#ffffff;" vertex="1" parent="1">
          <mxGeometry x="42.5" y="1440" width="120" height="60" as="geometry" />
        </mxCell>
        <mxCell id="PeHvXQYI0FSNWm7aJ0UE-132" value="&lt;span style=&quot;font-size: 12px&quot;&gt;图片键名&lt;/span&gt;" style="ellipse;whiteSpace=wrap;html=1;fontSize=18;strokeColor=default;strokeWidth=2;" vertex="1" parent="1">
          <mxGeometry x="2.5" y="1524" width="60" height="46" as="geometry" />
        </mxCell>
        <mxCell id="PeHvXQYI0FSNWm7aJ0UE-133" value="&lt;span style=&quot;font-size: 12px&quot;&gt;图片路径&lt;/span&gt;" style="ellipse;whiteSpace=wrap;html=1;fontSize=18;strokeColor=default;strokeWidth=2;" vertex="1" parent="1">
          <mxGeometry x="72.5" y="1524" width="68.5" height="46" as="geometry" />
        </mxCell>
        <mxCell id="PeHvXQYI0FSNWm7aJ0UE-134" value="&lt;span style=&quot;font-size: 12px&quot;&gt;图片文件名&lt;/span&gt;" style="ellipse;whiteSpace=wrap;html=1;fontSize=18;strokeColor=default;strokeWidth=2;" vertex="1" parent="1">
          <mxGeometry x="151" y="1524" width="67.5" height="46" as="geometry" />
        </mxCell>
        <mxCell id="PeHvXQYI0FSNWm7aJ0UE-135" value="&lt;span style=&quot;font-size: 12px&quot;&gt;上传时间&lt;/span&gt;" style="ellipse;whiteSpace=wrap;html=1;fontSize=18;strokeColor=default;strokeWidth=2;" vertex="1" parent="1">
          <mxGeometry x="228.5" y="1524" width="60" height="46" as="geometry" />
        </mxCell>
        <mxCell id="PeHvXQYI0FSNWm7aJ0UE-136" value="&lt;span style=&quot;font-size: 12px&quot;&gt;资源id&lt;/span&gt;" style="ellipse;whiteSpace=wrap;html=1;fontSize=18;strokeColor=default;strokeWidth=2;" vertex="1" parent="1">
          <mxGeometry y="1582" width="60" height="46" as="geometry" />
        </mxCell>
        <mxCell id="PeHvXQYI0FSNWm7aJ0UE-137" value="&lt;span style=&quot;font-size: 12px&quot;&gt;用户id&lt;/span&gt;" style="ellipse;whiteSpace=wrap;html=1;fontSize=18;strokeColor=default;strokeWidth=2;" vertex="1" parent="1">
          <mxGeometry x="70" y="1582" width="60" height="46" as="geometry" />
        </mxCell>
        <mxCell id="PeHvXQYI0FSNWm7aJ0UE-138" value="&lt;span style=&quot;font-size: 12px&quot;&gt;允许上传类型&lt;/span&gt;" style="ellipse;whiteSpace=wrap;html=1;fontSize=18;strokeColor=default;strokeWidth=2;" vertex="1" parent="1">
          <mxGeometry x="-1030" y="1250" width="60" height="46" as="geometry" />
        </mxCell>
        <mxCell id="PeHvXQYI0FSNWm7aJ0UE-139" value="&lt;span style=&quot;font-size: 18px&quot;&gt;标签表&lt;/span&gt;" style="rounded=0;whiteSpace=wrap;html=1;fillColor=#1ba1e2;strokeColor=#006EAF;strokeWidth=2;fontColor=#ffffff;" vertex="1" parent="1">
          <mxGeometry x="382.5" y="1440" width="120" height="60" as="geometry" />
        </mxCell>
        <mxCell id="PeHvXQYI0FSNWm7aJ0UE-140" value="&lt;span style=&quot;font-size: 12px&quot;&gt;标签名&lt;/span&gt;" style="ellipse;whiteSpace=wrap;html=1;fontSize=18;strokeColor=default;strokeWidth=2;" vertex="1" parent="1">
          <mxGeometry x="371.5" y="1524" width="60" height="46" as="geometry" />
        </mxCell>
        <mxCell id="PeHvXQYI0FSNWm7aJ0UE-141" value="&lt;span style=&quot;font-size: 12px&quot;&gt;资源id&lt;/span&gt;" style="ellipse;whiteSpace=wrap;html=1;fontSize=18;strokeColor=default;strokeWidth=2;" vertex="1" parent="1">
          <mxGeometry x="441.5" y="1524" width="68.5" height="46" as="geometry" />
        </mxCell>
        <mxCell id="PeHvXQYI0FSNWm7aJ0UE-142" value="关注类型可以是圈子，也可以是用户" style="text;html=1;strokeColor=none;fillColor=none;align=center;verticalAlign=middle;whiteSpace=wrap;rounded=0;" vertex="1" parent="1">
          <mxGeometry x="-1132.5" y="1610" width="245" height="30" as="geometry" />
        </mxCell>
        <mxCell id="PeHvXQYI0FSNWm7aJ0UE-143" value="&lt;span style=&quot;font-size: 12px&quot;&gt;用户id&lt;/span&gt;" style="ellipse;whiteSpace=wrap;html=1;fontSize=18;strokeColor=default;strokeWidth=2;" vertex="1" parent="1">
          <mxGeometry x="-131.25" y="1460" width="62.75" height="46" as="geometry" />
        </mxCell>
        <mxCell id="PeHvXQYI0FSNWm7aJ0UE-144" value="&lt;span style=&quot;font-size: 12px&quot;&gt;被回复用户id&lt;/span&gt;" style="ellipse;whiteSpace=wrap;html=1;fontSize=18;strokeColor=default;strokeWidth=2;" vertex="1" parent="1">
          <mxGeometry x="-370" y="304" width="90" height="46" as="geometry" />
        </mxCell>
      </root>
    </mxGraphModel>
  </diagram>
</mxfile>
